<?xml version="1.0" encoding="utf-8"?>
<!-- Generator: Adobe Illustrator 21.0.0, SVG Export Plug-In . SVG Version: 6.00 Build 0)  -->
<svg version="1.1" id="Layer_1" xmlns="http://www.w3.org/2000/svg" xmlns:xlink="http://www.w3.org/1999/xlink" x="0px" y="0px"
	 viewBox="0 0 16.2 16" style="enable-background:new 0 0 16.2 16;" xml:space="preserve">
<path d="M8.1,16c-2.2,0-4.2-0.8-5.7-2.3c-3.2-3.1-3.2-8.2,0-11.3C3.9,0.8,5.9,0,8.1,0c2.2,0,4.2,0.8,5.7,2.3
	c1.5,1.5,2.4,3.5,2.4,5.7c0,2.1-0.8,4.1-2.4,5.7C12.3,15.2,10.3,16,8.1,16z M8.1,1C6.2,1,4.4,1.7,3.1,3c-2.8,2.7-2.8,7.2,0,9.9
	c1.3,1.3,3.1,2.1,5,2.1c1.9,0,3.7-0.7,5-2.1c1.3-1.3,2.1-3.1,2.1-4.9c0-1.9-0.7-3.6-2.1-4.9C11.8,1.7,10,1,8.1,1z"/>
<path d="M8.1,12.5c-0.3,0-0.5-0.2-0.5-0.5V7c0-0.3,0.2-0.5,0.5-0.5c0.3,0,0.5,0.2,0.5,0.5v5C8.6,12.3,8.4,12.5,8.1,12.5z"/>
<path d="M8.1,7.5h-1C6.8,7.5,6.6,7.3,6.6,7c0-0.3,0.2-0.5,0.5-0.5h1c0.3,0,0.5,0.2,0.5,0.5C8.6,7.3,8.4,7.5,8.1,7.5z"/>
<path d="M8.1,7.5h-1C6.8,7.5,6.6,7.3,6.6,7c0-0.3,0.2-0.5,0.5-0.5h1c0.3,0,0.5,0.2,0.5,0.5C8.6,7.3,8.4,7.5,8.1,7.5z"/>
<path d="M8.1,12.5h-1c-0.3,0-0.5-0.2-0.5-0.5c0-0.3,0.2-0.5,0.5-0.5h1c0.3,0,0.5,0.2,0.5,0.5C8.6,12.3,8.4,12.5,8.1,12.5z"/>
<path d="M9.1,12.5h-2c-0.3,0-0.5-0.2-0.5-0.5c0-0.3,0.2-0.5,0.5-0.5h2c0.3,0,0.5,0.2,0.5,0.5C9.6,12.3,9.4,12.5,9.1,12.5z"/>
<path d="M8.1,5.5c-0.6,0-1-0.4-1-1c0-0.6,0.5-1,1-1c0.6,0,1,0.4,1,1C9.1,5.1,8.7,5.5,8.1,5.5z"/>
</svg>
