<?xml version="1.0" encoding="utf-8"?>
<!-- Generator: Adobe Illustrator 18.1.0, SVG Export Plug-In . SVG Version: 6.00 Build 0)  -->
<svg version="1.1" id="in" xmlns="http://www.w3.org/2000/svg" xmlns:xlink="http://www.w3.org/1999/xlink" x="0px" y="0px"
	 viewBox="0 0 595.3 595.3" style="enable-background:new 0 0 595.3 595.3;" xml:space="preserve">
<style type="text/css">
	.in0{clip-path:url(#SVGID_2_);fill:#FFFFFF;}
</style>
<g>
	<g>
		<defs>
			<rect id="in_1_" y="0" width="595.3" height="595.3"/>
		</defs>
		<clipPath id="in_2_">
			<use xlink:href="#in_1_"  style="overflow:visible;"/>
		</clipPath>
		<path class="in0" d="M479.7,0H115.6C52.5,0,0,52.5,0,115.6v122.6v245.1c0,59.5,52.5,112.1,115.6,112.1h364.2
			c63,0,115.6-52.5,115.6-115.6V234.6V115.6C595.3,52.5,542.8,0,479.7,0 M514.7,70h10.5v14v87.5H423.7V70H514.7z M213.6,238.1
			c17.5-28,49-45.5,84-45.5s66.5,17.5,84,42c14,17.5,21,38.5,21,59.5c0,56-45.5,105-105,105c-56,0-105-45.5-105-105
			C192.6,276.6,199.6,255.6,213.6,238.1 M539.3,479.7c0,31.5-24.5,56-56,56H115.6c-31.5,0-56-24.5-56-56V234.6h87.5
			c-7,21-10.5,42-10.5,63c0,91,73.5,164.6,161.1,164.6c91,0,164.6-73.5,164.6-164.6c0-21-3.5-42-10.5-59.5h87.5V479.7z"/>
	</g>
</g>
</svg>
