<?xml version="1.0" encoding="utf-8"?>
<svg version="1.1" id="vk" xmlns="http://www.w3.org/2000/svg" xmlns:xlink="http://www.w3.org/1999/xlink" x="0px" y="0px"
	 viewBox="0 0 7.9 10.9" style="enable-background:new 0 0 7.9 10.9;" xml:space="preserve">
<path fill="#ffffff" d="M0,10.8c0.5,0.1,1.4,0.2,2.6,0.2c2.1,0,3.4-0.3,4.2-1c0.7-0.5,1.1-1.3,1.1-2.3C7.9,6.3,7,5.4,5.8,5v0C7,4.5,7.5,3.7,7.5,2.7
	c0-1-0.5-1.7-1.3-2.1C5.5,0.1,4.6,0,3.1,0C1.9,0,0.6,0.1,0,0.2V10.8z M2.4,1.8c0.2,0,0.5-0.1,1-0.1c1.1,0,1.7,0.4,1.7,1.2
	c0,0.8-0.7,1.3-1.9,1.3H2.4V1.8z M2.4,6.1h0.8c1.2,0,2.2,0.4,2.2,1.5c0,1.1-1,1.5-2.1,1.5c-0.4,0-0.7,0-0.9,0V6.1z"/>
</svg>
